# xmcd
#
# Track frame offsets: 
#        150
#        14020
#        33780
#        48432
#        87012
#        105302
#        117862
#        132697
#        149967
#        160112
#        180215
#        200642
#        225500
#        248062
#        264660
#        292787
#        317837
#
# Disc length: 4427 seconds
#
# Revision: 2
# Processed by: cddbd v1.5.2PL0 Copyright (c) Steve Scherf et al.
# Submitted via: ExactAudioCopy v0.99pb3
#
DISCID=e8114911
DTITLE=Bobby Pulido - En Vivo Desde Monterrey
DYEAR=1998
DGENRE=Latin
TTITLE0=Intro
TTITLE1=Que Mas Te Puedo Dar
TTITLE2=La Rosa
TTITLE3=Enseniame - La Plancha
TTITLE4=Te Voy A Amar
TTITLE5=Cuando Me Dejes De Amar
TTITLE6=Cielito Lindo
TTITLE7=La Diferencia - Costumbres
TTITLE8=No Me Vuelvo A Enamorar
TTITLE9=Margarita
TTITLE10=Llegaste A Mi Vida
TTITLE11=Sabes
TTITLE12=Se Murio De Amor
TTITLE13=Tal Vez
TTITLE14=Le Pedire
TTITLE15=Desvelado (Encore)
TTITLE16=Quisiera Decirte
EXTD=
EXTT0=
EXTT1=
EXTT2=
EXTT3=
EXTT4=
EXTT5=
EXTT6=
EXTT7=
EXTT8=
EXTT9=
EXTT10=
EXTT11=
EXTT12=
EXTT13=
EXTT14=
EXTT15=
EXTT16=
PLAYORDER=
